<svg width="25" height="25" viewBox="0 0 25 25" fill="none" xmlns="http://www.w3.org/2000/svg">
<path d="M22.9387 7.08159H16.9211" stroke="#EB5757" stroke-width="1.5" stroke-miterlimit="10" stroke-linecap="round" stroke-linejoin="round"/>
<path d="M6.89182 7.08159H2.88013" stroke="#EB5757" stroke-width="1.5" stroke-miterlimit="10" stroke-linecap="round" stroke-linejoin="round"/>
<path d="M10.9035 10.5245C11.3645 10.5245 11.821 10.4354 12.2468 10.2624C12.6727 10.0894 13.0597 9.83581 13.3857 9.51613C13.7116 9.19645 13.9702 8.81694 14.1466 8.39926C14.323 7.98159 14.4138 7.53392 14.4138 7.08183C14.4138 6.62974 14.323 6.18207 14.1466 5.76439C13.9702 5.34672 13.7116 4.9672 13.3857 4.64753C13.0597 4.32785 12.6727 4.07427 12.2468 3.90126C11.821 3.72825 11.3645 3.63921 10.9035 3.63921C9.97257 3.63921 9.07973 4.00191 8.42143 4.64753C7.76314 5.29314 7.39331 6.16879 7.39331 7.08183C7.39331 7.99487 7.76314 8.87051 8.42143 9.51613C9.07973 10.1617 9.97257 10.5245 10.9035 10.5245V10.5245Z" stroke="#EB5757" stroke-width="1.5" stroke-miterlimit="10" stroke-linecap="round" stroke-linejoin="round"/>
<path d="M22.9387 17.9014H18.927" stroke="#EB5757" stroke-width="1.5" stroke-miterlimit="10" stroke-linecap="round" stroke-linejoin="round"/>
<path d="M8.89767 17.9015H2.88013" stroke="#EB5757" stroke-width="1.5" stroke-miterlimit="10" stroke-linecap="round" stroke-linejoin="round"/>
<path d="M14.9153 21.3443C15.8462 21.3443 16.7391 20.9816 17.3974 20.336C18.0557 19.6903 18.4255 18.8147 18.4255 17.9017C18.4255 16.9886 18.0557 16.113 17.3974 15.4674C16.7391 14.8217 15.8462 14.459 14.9153 14.459C13.9843 14.459 13.0914 14.8217 12.4332 15.4674C11.7749 16.113 11.405 16.9886 11.405 17.9017C11.405 18.8147 11.7749 19.6903 12.4332 20.336C13.0914 20.9816 13.9843 21.3443 14.9153 21.3443V21.3443Z" stroke="#EB5757" stroke-width="1.5" stroke-miterlimit="10" stroke-linecap="round" stroke-linejoin="round"/>
</svg>
