<svg width="23" height="21" viewBox="0 0 23 21" fill="none" xmlns="http://www.w3.org/2000/svg">
<path d="M22.3369 4.47773C21.9835 3.65939 21.4739 2.91782 20.8366 2.29453C20.1989 1.66938 19.447 1.17258 18.6218 0.831151C17.7661 0.475704 16.8483 0.293765 15.9218 0.295898C14.6219 0.295898 13.3536 0.651854 12.2515 1.32422C11.9878 1.48506 11.7373 1.66172 11.5 1.8542C11.2627 1.66172 11.0122 1.48506 10.7485 1.32422C9.64639 0.651854 8.37812 0.295898 7.07822 0.295898C6.14219 0.295898 5.23516 0.475195 4.37822 0.831151C3.55029 1.17392 2.8041 1.66699 2.16338 2.29453C1.52528 2.91712 1.01556 3.65886 0.663086 4.47773C0.296582 5.32939 0.109375 6.23378 0.109375 7.16454C0.109375 8.04257 0.288672 8.95751 0.644629 9.88827C0.942578 10.6661 1.36973 11.4729 1.91553 12.2877C2.78037 13.577 3.96953 14.9218 5.44609 16.2849C7.89297 18.5446 10.3161 20.1055 10.4189 20.1688L11.0438 20.5696C11.3207 20.7463 11.6767 20.7463 11.9535 20.5696L12.5784 20.1688C12.6813 20.1029 15.1018 18.5446 17.5513 16.2849C19.0278 14.9218 20.217 13.577 21.0818 12.2877C21.6276 11.4729 22.0574 10.6661 22.3527 9.88827C22.7087 8.95751 22.888 8.04257 22.888 7.16454C22.8906 6.23378 22.7034 5.32939 22.3369 4.47773Z" fill="#EB5757"/>
</svg>
