<svg width="25" height="25" viewBox="0 0 25 25" fill="none" xmlns="http://www.w3.org/2000/svg">
<path d="M11.5746 22.082C5.90807 22.082 1.29462 17.5574 1.29462 12C1.29462 6.44262 5.90807 1.91803 11.5746 1.91803C17.2411 1.91803 21.8546 6.44262 21.8546 12C21.8546 17.5574 17.2411 22.082 11.5746 22.082ZM11.5746 3.39344C6.73046 3.39344 2.799 7.25901 2.799 12C2.799 16.741 6.73046 20.6066 11.5746 20.6066C16.4187 20.6066 20.3502 16.741 20.3502 12C20.3502 7.25901 16.4187 3.39344 11.5746 3.39344Z" fill="#828282"/>
<path d="M22.1053 23.0657C21.9147 23.0657 21.7242 22.9969 21.5737 22.8493L19.5679 20.8821C19.428 20.7433 19.3495 20.556 19.3495 20.3608C19.3495 20.1656 19.428 19.9783 19.5679 19.8395C19.8587 19.5542 20.3401 19.5542 20.631 19.8395L22.6368 21.8067C22.9277 22.0919 22.9277 22.5641 22.6368 22.8493C22.4864 22.9969 22.2958 23.0657 22.1053 23.0657Z" fill="#828282"/>
</svg>
