<svg width="24" height="24" viewBox="0 0 24 24" fill="none" xmlns="http://www.w3.org/2000/svg">
<path d="M21 5.25H3C2.59 5.25 2.25 4.91 2.25 4.5C2.25 4.09 2.59 3.75 3 3.75H21C21.41 3.75 21.75 4.09 21.75 4.5C21.75 4.91 21.41 5.25 21 5.25Z" fill="#4F4F4F"/>
<path d="M21 12.5H3C2.59 12.5 2.25 12.16 2.25 11.75C2.25 11.34 2.59 11 3 11H21C21.41 11 21.75 11.34 21.75 11.75C21.75 12.16 21.41 12.5 21 12.5Z" fill="#4F4F4F"/>
<path d="M21 19.5H3C2.59 19.5 2.25 19.16 2.25 18.75C2.25 18.34 2.59 18 3 18H21C21.41 18 21.75 18.34 21.75 18.75C21.75 19.16 21.41 19.5 21 19.5Z" fill="#4F4F4F"/>
</svg>
