<svg width="32" height="24" viewBox="0 0 24 24" fill="none" xmlns="http://www.w3.org/2000/svg">
<path d="M12.0199 20.5304C9.68987 20.5304 7.35987 20.1604 5.14987 19.4204C4.30987 19.1304 3.66987 18.5404 3.38987 17.7704C3.09987 17.0004 3.19987 16.1504 3.65987 15.3904L4.80987 13.4804C5.04987 13.0804 5.26987 12.2804 5.26987 11.8104V8.92041C5.26987 5.20041 8.29987 2.17041 12.0199 2.17041C15.7399 2.17041 18.7699 5.20041 18.7699 8.92041V11.8104C18.7699 12.2704 18.9899 13.0804 19.2299 13.4904L20.3699 15.3904C20.7999 16.1104 20.8799 16.9804 20.5899 17.7704C20.4483 18.1569 20.2208 18.5062 19.9246 18.792C19.6284 19.0778 19.2712 19.2927 18.8799 19.4204C16.6799 20.1604 14.3499 20.5304 12.0199 20.5304ZM12.0199 3.67041C9.12987 3.67041 6.76987 6.02041 6.76987 8.92041V11.8104C6.76987 12.5404 6.46987 13.6204 6.09987 14.2504L4.94987 16.1604C4.72987 16.5304 4.66987 16.9204 4.79987 17.2504C4.91987 17.5904 5.21987 17.8504 5.62987 17.9904C9.77828 19.3904 14.2715 19.3904 18.4199 17.9904C18.7799 17.8704 19.0599 17.6004 19.1899 17.2404C19.3199 16.8804 19.2899 16.4904 19.0899 16.1604L17.9399 14.2504C17.5599 13.6004 17.2699 12.5304 17.2699 11.8004V8.92041C17.2699 6.02041 14.9199 3.67041 12.0199 3.67041Z" fill="#4F4F4F"/>
<path d="M13.8798 3.94019C13.8098 3.94019 13.7398 3.93019 13.6698 3.91019C13.3798 3.83019 13.0998 3.77019 12.8298 3.73019C11.9798 3.62019 11.1598 3.68019 10.3898 3.91019C10.1098 4.00019 9.80981 3.91019 9.61981 3.70019C9.52514 3.5967 9.46174 3.4685 9.43696 3.33045C9.41219 3.1924 9.42704 3.05015 9.47981 2.92019C9.67891 2.40623 10.0292 1.96476 10.4845 1.65409C10.9398 1.34343 11.4786 1.17818 12.0298 1.18019C13.1698 1.18019 14.1698 1.86019 14.5798 2.92019C14.6798 3.19019 14.6298 3.49019 14.4398 3.70019C14.2898 3.86019 14.0798 3.94019 13.8798 3.94019Z" fill="#4F4F4F"/>
<path d="M12.02 22.8101C11.03 22.8101 10.07 22.4101 9.37002 21.7101C8.67002 21.0101 8.27002 20.0501 8.27002 19.0601H9.77002C9.77002 19.6501 10.01 20.2301 10.43 20.6501C10.85 21.0701 11.43 21.3101 12.02 21.3101C13.26 21.3101 14.27 20.3001 14.27 19.0601H15.77C15.77 21.1301 14.09 22.8101 12.02 22.8101Z" fill="#4F4F4F"/>
</svg>
